# xmcd
#
# Track frame offsets:
#	150
#	25275
#	45461
#	71858
#	96182
#	115873
#	140307
#	169968
#	192375
#	214017
#	236546
#	247754
#	272088
#	288285
#	303465
#
# Disc length: 4232
#
# Revision: 1
# Processed by: cddbd v1.5.1PL0 Copyright (c) Steve Scherf et al.
# Submitted via: dBpowerAMP V4.0
# Normalized: r0:TDELIM( - )
#
DISCID=d710860f
DTITLE=Various Artist - Trance Vibrations, CD1
DYEAR=1900
DGENRE=Dance
TTITLE0=Vincent De Moor - Worlds Of Doubt
TTITLE1=Libra and Taylor - Calling Your name (Pronti and Kalmani remix)
TTITLE2=Ascension - Someone
TTITLE3=Re-Flex - Lui (sea mix)
TTITLE4=Pulsedriver - Your Spirit Is Shining
TTITLE5=Private Possesions - Always (extended mix)
TTITLE6=Atlantis and Avatar and Miriam Stockley - Fiji
TTITLE7=Pund and Harris - Formantera (Bervoets and De Goey mix)
TTITLE8=Southside Spinners - Luvstruck 2000 (Atlantis Ita mix)
TTITLE9=Kessok - Reality (Pulsedriver remix)
TTITLE10=Marco V - Tolerance
TTITLE11=Fast - Transmission
TTITLE12=Tazka - Your Eyes (Yonah's dub mix)
TTITLE13=Yahel - Devotion (Armin remix)
TTITLE14=Liquid and Silvy - Turn The Tide (Airscape remix)
EXTD=
EXTT0=
EXTT1=
EXTT2=
EXTT3=
EXTT4=
EXTT5=
EXTT6=
EXTT7=
EXTT8=
EXTT9=
EXTT10=
EXTT11=
EXTT12=
EXTT13=
EXTT14=
PLAYORDER=
